<svg xmlns="http://www.w3.org/2000/svg" width="560" height="150" viewBox="0 0 560 150" role="img" aria-labelledby="title">
<title>Zahrat El-Rabea For Food Manufacturing</title>
<defs><linearGradient id="g" x1="0" y1="0" x2="1" y2="1"><stop stop-color="#2f7a4f"/><stop offset="1" stop-color="#91aa53"/></linearGradient></defs>
<g transform="translate(4 5)">
<circle cx="70" cy="70" r="62" fill="#f3f7ed" stroke="#dbe8d2" stroke-width="3"/>
<path d="M72 113C56 92 54 69 65 42c15 13 23 32 20 55" fill="none" stroke="#286a45" stroke-width="7" stroke-linecap="round"/>
<path d="M62 55C43 48 29 36 23 20c20-1 36 8 46 27" fill="url(#g)"/>
<path d="M77 72c18-13 38-17 57-11-8 19-24 31-48 35" fill="#6f9149"/>
<ellipse cx="89" cy="38" rx="14" ry="20" transform="rotate(28 89 38)" fill="#9cb35b"/>
<ellipse cx="48" cy="80" rx="13" ry="19" transform="rotate(-28 48 80)" fill="#4f814d"/>
<ellipse cx="96" cy="96" rx="14" ry="20" transform="rotate(35 96 96)" fill="#2f6241"/>
</g>
<g fill="#123b2c">
<text x="145" y="64" font-family="Georgia, 'Times New Roman', serif" font-size="43" font-weight="700">Zahrat El-Rabea</text>
<text x="147" y="101" font-family="Arial, sans-serif" font-size="17" letter-spacing="2.6" fill="#4a6f59">FOR FOOD MANUFACTURING</text>
<path d="M147 116h350" stroke="#98ad5a" stroke-width="3" stroke-linecap="round"/>
</g></svg>